<?xml version="1.0" encoding="UTF-8"?>
<svg width="126px" height="85px" viewBox="0 0 126 85" version="1.1" xmlns="http://www.w3.org/2000/svg" xmlns:xlink="http://www.w3.org/1999/xlink">
    <!-- Generator: Sketch 52.5 (67469) - http://www.bohemiancoding.com/sketch -->
    <title>zanwushuju3</title>
    <desc>Created with Sketch.</desc>
    <g id="Page-1" stroke="none" stroke-width="1" fill="none" fill-rule="evenodd" opacity="0.4">
        <g id="暂无数据" transform="translate(-125.000000, -271.000000)">
            <g id="zanwushuju3" transform="translate(125.000000, 271.000000)">
                <path d="M59.8663347,3.07445588 C59.8654432,3.88851573 59.5408936,4.66887995 58.9640832,5.24387706 C58.3872727,5.81887417 57.6054509,6.14140332 56.7906098,6.14051167 L44.5062084,6.14051167 C42.8098543,6.14051167 41.4346876,4.76666348 41.4346876,3.07193585 C41.4346876,1.37720821 42.8098543,0.00336001885 44.5062084,0.00336001885 L56.7906098,0.00336001885 C57.6061881,0.00291428205 58.3885151,0.326278453 58.9653738,0.902268967 C59.5422325,1.47825948 59.8663348,2.25965945 59.8663347,3.07445588 Z M76.5936367,3.07445588 C76.5936367,4.76960667 75.6250104,6.14219164 74.4310439,6.14219164 L65.7857178,6.14219164 C64.5900696,6.14219164 63.6231249,4.76792662 63.6231249,3.07445588 C63.6231249,1.38098515 64.5900696,0 65.7857178,0 L74.4310439,0 C75.626692,0 76.5936367,1.37426502 76.5936367,3.06941581 L76.5936367,3.07445588 Z M95.3691798,15.5218023 C95.3696262,16.471898 94.9920376,17.3832084 94.3195736,18.0550276 C93.6471096,18.7268468 92.7349247,19.1040733 91.7839171,19.1036274 L56.2861169,19.1036274 C54.3064954,19.1036273 52.7016951,17.5003657 52.7016951,15.5226422 C52.7016951,13.5449188 54.3064954,11.9416571 56.2861169,11.9416571 L91.7839171,11.9416571 C92.7346332,11.9412114 93.6465632,12.3182074 94.3189788,12.9896632 C94.9913943,13.6611189 95.3691799,14.5719976 95.3691798,15.5218023 Z M104.927638,28.3101948 C104.927638,30.1946687 103.398504,31.7223367 101.512221,31.7223368 L47.9182619,31.7223368 C46.0324437,31.7223368 44.503686,30.1950448 44.503686,28.3110347 C44.503686,26.4270247 46.0324437,24.8997327 47.9182619,24.8997327 L101.512221,24.8997327 C103.39812,24.8997318 104.927464,26.4261052 104.92932,28.3101948 L104.927638,28.3101948 Z M108,40.4181749 C108,42.3963623 106.394823,44 104.414737,44 L94.5132235,44 C92.5331376,44 90.9279608,42.3963623 90.9279608,40.4181749 C90.9279608,38.4399875 92.5331376,36.8363498 94.5132235,36.8363498 L104.414737,36.8363498 C105.365744,36.8359038 106.277929,37.2131304 106.950393,37.8849496 C107.622857,38.5567688 108.000446,39.4680791 108,40.4181749 Z M88.1986544,40.4181749 C88.1986544,42.3972509 85.8140848,44 82.8661648,44 L14.3291264,44 C11.3862514,44 9.00000009,42.3972509 9,40.4181749 C8.99999991,38.4390989 11.3862513,36.8380298 14.3291264,36.8380298 L82.8678463,36.8380298 C85.8157664,36.8380298 88.200336,38.4407789 88.200336,40.4198549 L88.1986544,40.4181749 Z" id="形状" fill="#E4EEF2" fill-rule="nonzero"></path>
                <path d="M29.9999996,47.9982087 C30.0004236,49.0596953 29.6245907,50.0778428 28.9552696,50.8284273 C28.2859484,51.5790117 27.3780325,52.0004751 26.4314695,51.9999996 L21.5674705,51.9999996 C20.2930001,52.0002151 19.1152587,51.2378666 18.477968,50.0001739 C17.8406773,48.7624812 17.8406773,47.2375188 18.477968,45.9998261 C19.1152587,44.7621334 20.2930001,43.9997849 21.5674705,44.0000004 L26.4314695,44.0000004 C27.3774789,43.9995252 28.2849106,44.4204969 28.9541398,45.1703064 C29.623369,45.9201159 29.9995761,46.9373428 29.9999996,47.9982087 Z" id="路径" fill="#E4EEF2"></path>
                <path d="M66.6402941,54.9811237 C66.6407384,56.0377002 66.2110948,57.0511505 65.445927,57.7984163 C64.6807592,58.5456821 63.6427803,58.9655174 62.5604475,58.9655173 L4.0809718,58.9655173 C2.62316632,58.9657288 1.27601722,58.206591 0.547114507,56.974138 C-0.182371502,55.7420492 -0.182371502,54.2234682 0.547114507,52.9913794 C1.27601722,51.7589264 2.62316632,50.9997885 4.0809718,51 L62.5587727,51 C63.6408153,51 64.6785403,51.4196109 65.4436599,52.166523 C66.2087796,52.9134352 66.6386193,53.9264654 66.6386193,54.9827587 L66.6402941,54.9811237 Z M119,69.0532105 C118.999076,71.2325883 117.189504,72.9990977 114.956999,73 L66.263461,73 C64.0621797,72.9562652 62.3010865,71.2017355 62.3010865,69.052393 C62.3010865,66.9030505 64.0621797,65.1485208 66.263461,65.104786 L114.955324,65.104786 C117.188101,65.1056873 118.998152,66.8719332 119,69.0515755 L119,69.0532105 Z" id="形状" fill="#E4EEF2" fill-rule="nonzero"></path>
                <path d="M78.7715492,76.0090266 C78.7696849,77.6673456 77.4483288,79.0104063 75.8196083,79.009456 L71.7784215,79.009456 C70.7239765,79.0096389 69.7495522,78.4369811 69.2222778,77.5072398 C68.6950034,76.5774986 68.6950034,75.4319574 69.2222778,74.5022162 C69.7495522,73.5724749 70.7239765,72.9998171 71.7784215,73 L75.8196083,73 C77.4488755,73.0009474 78.7696864,74.3449926 78.7715492,76.0038683 L78.7715492,76.0090266 Z M111.685352,82.0064464 C111.685353,82.8009818 111.375128,83.562925 110.823018,84.1244238 C110.270907,84.6859226 109.522209,85.0009107 108.741855,84.999998 L53.9401196,84.999998 C52.3163364,84.999998 51,83.6597393 51,82.0064464 C51,80.3531535 52.3163364,79.0128948 53.9401196,79.0128948 L108.741855,79.0128948 C109.522071,79.0124386 110.27051,79.3275736 110.822523,79.8889734 C111.374536,80.4503733 111.684905,81.2120511 111.685352,82.0064464 Z M123,82.0064464 C123,83.6590681 121.684693,84.9990488 120.061569,84.999998 L117.714202,84.999998 C116.090419,84.999998 114.774082,83.6597393 114.774082,82.0064464 C114.774082,80.3531535 116.090419,79.0128948 117.714202,79.0128948 L120.061569,79.0128948 C121.684693,79.0138441 123,80.3538248 123,82.0064464 Z" id="形状" fill="#E4EEF2" fill-rule="nonzero"></path>
                <path d="M87.2003715,5.0124823 L35.3512732,5.0124823 C35.3512732,5.0124823 31.3635351,4.5244931 31.111857,9.65087793 C30.8601788,14.7772627 31.111857,68.541015 31.111857,75.5327511 C31.0285311,81.2420582 38.2540745,82.4861809 40.8337754,79.2351402 C44.3249594,75.0863993 42.0802624,70.2015108 41.3337307,69.9550179 C40.5871989,69.708525 89.9450237,69.9550179 89.9450237,69.9550179 L89.9450237,11.6045002 C89.9450237,11.6045002 90.6252349,4.99915836 87.2003715,5.0124823 Z" id="路径" fill="#FFFFFF"></path>
                <path d="M37.3860775,82 C35.6074272,82 33.9218557,81.3274567 32.7626021,80.1589126 C31.6591958,79.0458534 31.0871845,77.5494445 31.1125696,75.834459 C31.1125696,74.2556635 31.1007233,70.2859765 31.0837999,65.0081928 C31.0262603,46.948723 30.9145658,13.3299633 31.1125696,9.30311008 C31.3004195,5.39227062 33.6053878,4.00010594 35.6988136,4.00010594 C35.8169827,3.99909868 35.9351031,4.00527519 36.0525129,4.01860086 L87.572448,4.01860086 C88.3693495,4.00297099 89.132704,4.33696253 89.6591044,4.93157843 C91.3852922,6.82646929 90.9588222,11.1862314 90.9402065,11.3661367 L90.9402065,70.8509129 L90.2954246,70.8509129 C90.2954246,70.8509129 68.4642265,70.7399433 54.1317911,70.7399433 C47.6348942,70.7399433 44.5717571,70.7634823 43.1603448,70.7887026 C43.3429227,71.1681609 43.4940421,71.561783 43.6121999,71.9656535 C44.4239615,74.7501908 43.7896985,77.7534709 41.9198589,79.9790073 C40.9230701,81.2551582 39.264576,81.9966372 37.3826928,81.9966372 L37.3860775,82 Z M35.6937366,5.27457548 C34.7595643,5.27457548 32.5679828,5.67473877 32.3885947,9.36363899 C32.2007449,13.3585463 32.3073624,46.9554484 32.3598249,65.0014673 C32.3767483,70.2742071 32.3885947,74.2489381 32.3885947,75.8411844 C32.3682866,77.2182169 32.81168,78.396849 33.6696968,79.2610673 C34.662723,80.2179527 35.9977912,80.7435547 37.3810005,80.7221676 C38.8651835,80.7221676 40.153055,80.1639567 40.9163007,79.1870875 C42.243672,77.6326809 42.8636954,75.6014645 42.6289497,73.5763948 C42.4597156,72.0160942 41.8521652,70.945069 41.6440073,70.7836586 C41.3792852,70.6720821 41.229553,70.3914019 41.2852311,70.1111153 C41.3258473,69.8605929 41.34954,69.7092706 42.1314015,69.6167959 C43.3448099,69.4721991 46.3825619,69.4721991 54.1351758,69.4721991 C67.0155826,69.4721991 85.9511854,69.5613111 89.6591044,69.5781247 L89.6591044,11.3056078 C89.7758759,10.1387451 89.8283385,7.00805593 88.7046241,5.78066433 C88.4236425,5.45599632 88.0099929,5.27492445 87.5792174,5.28802635 L35.9712805,5.28802635 C35.8815864,5.28802635 35.8020464,5.27625686 35.6988136,5.27625686 L35.6937366,5.27457548 Z" id="形状" fill="#000333" fill-rule="nonzero"></path>
                <path d="M39,15 L83.7196198,15 L83.7196198,27.4736307 L39,27.4736307 L39,15 Z M39,31.7578971 L81.3286599,31.7578971 L81.3286599,34.4459316 L39,34.4459316 L39,31.7578971 Z M39,38.4001182 L61.3623109,38.4001182 L61.3623109,41.0881526 L39,41.0881526 L39,38.4001182 Z M39,46.1595324 L75.7997736,46.1595324 L75.7997736,48.8475668 L39,48.8475668 L39,46.1595324 Z M39,53.8732433 L66.0842065,53.8732433 L66.0842065,56.5612776 L39,56.5612776 L39,53.8732433 Z M104.921465,64.1785036 C106.020239,65.2923113 106.330364,66.812371 105.615077,67.5740936 C104.899789,68.3358163 103.430866,68.0480543 102.335427,66.932554 L91.7978629,56.2295051 C90.7024231,55.1156974 90.3906313,53.5939449 91.1075857,52.8339151 C91.8245402,52.0738853 93.2901286,52.3599544 94.383901,53.4754548 L104.921465,64.1785036 Z" id="形状" fill="#D8EDE9" fill-rule="nonzero"></path>
                <path d="M104.103003,69.9970422 C103.241198,69.9970422 102.268996,69.5424999 101.506904,68.7790108 L90.2535813,57.5521705 C88.9323842,56.234708 88.6065363,54.4627032 89.5110756,53.5198829 C90.3711001,52.6125739 92.2300351,52.9286228 93.4924728,54.1892675 L104.744015,65.4161078 C106.065212,66.7317948 106.394621,68.5020241 105.490082,69.4466199 C105.125413,69.8169712 104.621392,70.0173655 104.101222,69.9988178 L104.103003,69.9970422 Z M90.8981545,53.6406207 C90.5671171,53.628022 90.24536,53.7512275 90.00786,53.9815275 C89.3775314,54.6367076 89.7140628,56.0536013 90.7379015,57.0763215 L101.991224,68.3031619 C102.630456,68.9405864 103.415696,69.322331 104.110125,69.322331 C104.439095,69.3312091 104.757666,69.2069589 104.993298,68.9778731 C105.621846,68.3209174 105.283534,66.9057993 104.259695,65.8866302 L93.0081526,54.6580143 C92.3689211,54.0188142 91.5836813,53.6370696 90.887471,53.6370696 L90.8981545,53.6406207 Z" id="形状" fill="#000333" fill-rule="nonzero"></path>
                <path d="M90.3065283,54.0236684 C89.4894741,54.2552764 90.6103915,53.5732308 90.2069287,54.522025 C90.0600615,55.3382435 90.4111922,56.0186918 91.06281,56.6432347 L101.191582,66.3947297 C102.234845,67.4026238 104.319684,68.4248935 104.831187,67.8179209 C104.883519,67.754029 104.942604,67.6981236 105,67.6358291 L90.3065283,54.0236684 Z" id="路径" fill="#000333"></path>
                <path d="M91.6093463,35.392568 C85.7504217,29.5353784 76.252048,29.535874 70.3937349,35.393675 C64.5354217,41.2514761 64.5354217,50.7485239 70.3937349,56.606325 C76.252048,62.464126 85.7504217,62.4646216 91.6093463,56.607432 C97.4635512,50.7470657 97.4635512,41.2529343 91.6093463,35.392568" id="路径" fill="#FFFFFF"></path>
                <path d="M81.4988491,61 C74.1046744,60.9991474 67.7407774,55.775215 66.2990204,48.5229161 C64.8572635,41.2706171 68.7391901,34.0097886 75.5707953,31.1808143 C82.4024004,28.3518401 90.2810144,30.7426175 94.3884446,36.8910586 C98.4958748,43.0394997 97.6881614,51.2332029 92.459264,56.4612817 C89.5565745,59.3747168 85.6097739,61.007035 81.4971767,60.9949829 L81.4988491,61 Z M81.4988491,31.2708936 C74.7087735,31.2761817 68.8679413,36.0770996 67.5482079,42.7377327 C66.2284744,49.3983659 69.7973815,56.0637476 76.0724286,58.657784 C82.3474757,61.2518205 89.5810806,59.0520803 93.3496629,53.4037747 C97.1182452,47.7554691 96.3722659,40.2316347 91.5679151,35.4333364 C88.9037797,32.7584459 85.2807787,31.2597409 81.5055384,31.2708936 L81.4988491,31.2708936 Z" id="形状" fill="#000333" fill-rule="nonzero"></path>
                <path d="M90.2226871,41.8320981 L88.3828641,41.8320981 L88.3828641,41.1967532 L90.2226871,41.1967532 L90.2226871,41.8320981 Z M86.461947,41.8320981 L84.5444087,41.8320981 L84.5444087,41.1967532 L86.4653258,41.1967532 L86.461947,41.8320981 Z M82.6218021,41.8320981 L80.700885,41.8320981 L80.700885,41.1967532 L82.6218021,41.1967532 L82.6218021,41.8320981 Z M78.7799678,41.8320981 L76.8607402,41.8320981 L76.8607402,41.1967532 L78.7799678,41.1967532 L78.7799678,41.8320981 Z M74.9415125,41.8320981 L73.0205953,41.8320981 L73.0205953,41.1967532 L74.9415125,41.1967532 L74.9415125,41.8320981 Z M85.4786806,36.6353449 L83.5577635,36.6353449 L83.5577635,36 L85.4786806,36 L85.4786806,36.6353449 Z M81.6385358,36.6353449 L79.7176187,36.6353449 L79.7176187,36 L81.6385358,36 L81.6385358,36.6353449 Z M77.798391,36.6353449 L75.8757844,36.6353449 L75.8757844,36 L77.7967016,36 L77.798391,36.6353449 Z M92,48.6297865 L90.204103,48.6297865 L90.204103,47.9927652 L92,47.9927652 L92,48.6297865 Z M88.2831859,48.6297865 L86.3639582,48.6297865 L86.3639582,47.9927652 L88.2831859,47.9927652 L88.2831859,48.6297865 Z M84.443041,48.6297865 L82.5170555,48.6297865 L82.5170555,47.9927652 L84.443041,47.9927652 L84.443041,48.6297865 Z M80.6028963,48.6297865 L78.6819791,48.6297865 L78.6819791,47.9927652 L80.6028963,47.9927652 L80.6028963,48.6297865 Z M76.7610619,48.6297865 L74.8418343,48.6297865 L74.8418343,47.9927652 L76.7610619,47.9927652 L76.7610619,48.6297865 Z M72.9226066,48.6297865 L71,48.6297865 L71,47.9927652 L72.9209171,47.9927652 L72.9226066,48.6297865 Z M86.2592116,55 L84.336605,55 L84.336605,54.3629787 L86.2575221,54.3629787 L86.2592116,55 Z M82.4173774,55 L80.4897024,55 L80.4897024,54.3629787 L82.4156879,54.3629787 L82.4173774,55 Z M78.578922,55 L76.6546259,55 L76.6546259,54.3629787 L78.575543,54.3629787 L78.578922,55 Z" id="形状" fill="#999999" fill-rule="nonzero"></path>
                <path d="M40.0910792,70.1660706 C40.0910792,70.1660706 44.8333984,78.9935968 36,81.7561922 C45.8961267,81.6687576 92.9367362,82 92.9367362,82 C92.9367362,82 96.6775401,79.696436 97.6977593,77.1927815 C98.7179785,74.6891269 96.9495985,71.1581164 95.453277,70.1307605 C92.1851746,69.8163324 40.0825774,70.167752 40.0825774,70.167752 L40.0910792,70.1660706 Z" id="路径" fill="#EEEEEE"></path>
                <path d="M92.77311,82 L92.6808642,82 C92.3202668,82 56.433288,81.7558511 41.387156,81.755851 C39.3745199,81.755851 37.7258355,81.755851 36.5736013,81.768617 L36.5568294,81.768617 L36.0402527,81.7143617 L36,81.4223404 L36.016772,81.1351064 L36.348857,81.1351064 L36.4897415,81.149468 C38.7975643,80.4425532 40.3254905,79.2489362 41.0332675,77.6069149 C42.3884424,74.4585106 40.2953009,70.6382979 40.2751745,70.6 L40.0286266,70.1595745 L40.551912,70.1595745 C40.79846,70.1595745 65.2989501,70 81.3446913,70 C89.6401064,70 94.3043905,70.0414893 95.203368,70.1244681 L95.2855507,70.1324468 L95.3543158,70.1771277 C96.992937,71.2590426 98.7305128,74.780851 97.6805877,77.2414893 C96.6306625,79.7021276 93.0062403,81.8547872 92.850261,81.9473404 L92.77311,82 Z M41.387156,81.1510638 C56.0559187,81.1510638 90.5290207,81.3808511 92.5919727,81.3952127 C93.1186125,81.0760637 96.2063317,79.0941489 97.0935688,77.0212766 C98.0428621,74.787234 96.3673426,71.6579787 95.0608063,70.7260638 C94.000818,70.6494681 89.3885269,70.6111702 81.3497229,70.6111703 C66.5803284,70.6111703 44.6459493,70.7452128 41.0634571,70.7707447 C41.60016,71.9148936 42.8261908,75.0569148 41.6286724,77.8462766 C41.0181728,79.2680851 39.8709701,80.3771277 38.2071909,81.1590426 L41.3938648,81.1590426 L41.387156,81.1510638 Z" id="形状" fill="#000333" fill-rule="nonzero"></path>
                <path d="M125,23.2966555 C124.979659,25.9142545 122.87311,28.019723 120.294381,27.9998606 L99.7056188,27.9998606 C97.1268899,28.019723 95.0203409,25.9142545 95,23.2966555 L95,21.7033317 C95.0212649,19.0861299 97.1272669,16.9812081 99.7056188,17.0001265 L120.294381,17.0001265 C122.872733,16.9812081 124.978735,19.0861299 125,21.7033317 L125,23.2966555 Z" id="路径" fill="#FFFFFF"></path>
                <path d="M120.97094,27.9999066 L100.02906,27.9999066 C97.2725348,28.0162105 95.022573,25.8968808 95,23.2628323 L95,21.7371677 C95.022573,19.1031192 97.2725348,16.9837895 100.02906,17.0000934 L120.97094,17.0000934 C123.727465,16.9837895 125.977427,19.1031193 126,21.7371677 L126,23.2628323 C125.97649,25.8965017 123.727082,28.0153097 120.97094,27.9999066 Z M100.02906,17.4672669 C97.5415912,17.4509559 95.5097433,19.3618622 95.4871795,21.7388012 L95.4871795,23.2644658 C95.5059932,25.6439643 97.5389439,27.5588323 100.02906,27.5425339 L120.97094,27.5425339 C123.458409,27.5588449 125.490257,25.6479387 125.512821,23.2709997 L125.512821,21.7453351 C125.494007,19.3658366 123.461056,17.4509685 120.97094,17.4672669 L100.02906,17.4672669 Z" id="形状" fill="#000333" fill-rule="nonzero"></path>
                <path d="M104,33 L105.916567,27 L113,27 L104,33 Z M106.275924,27.5555555 L104.951132,31.7083333 L111.167461,27.5555555 L106.275924,27.5555555 Z" id="形状" fill="#000333" fill-rule="nonzero"></path>
                <polygon id="路径" fill="#FFFFFF" points="105.924945 28.9332884 106.644158 26.477089 108.63007 26 110.651688 26.5134771 111.331795 26.9056604 112 26.9986524 108.599466 29.4245284 105 32"></polygon>
                <path d="M103.844143,21.4526144 C103.861776,22.0623979 103.526628,22.6225474 102.996762,22.868884 C102.466895,23.1152206 101.848141,22.9985437 101.432317,22.5738806 C101.016492,22.1492176 100.886651,21.5013861 101.104027,20.9359179 C101.321404,20.3704497 101.842583,20.0002854 102.421765,20.0000026 C103.190717,19.9996271 103.820732,20.6430335 103.844143,21.4526144 Z M112.421714,21.4526144 C112.440035,22.0634003 112.104752,22.624832 111.574129,22.8718993 C111.043506,23.1189666 110.423636,23.0022703 110.007114,22.5768942 C109.590591,22.1515181 109.460697,21.5025126 109.678744,20.9362251 C109.896791,20.3699376 110.419182,19.9995926 110.999336,20.0000026 C111.768289,19.9996271 112.398303,20.6430336 112.421714,21.4526144 Z M120.999285,21.4526144 C121.01761,22.0635599 120.682149,22.6251073 120.151318,22.872075 C119.620488,23.1190427 119.000481,23.0020246 118.584087,22.5762805 C118.167692,22.1505363 118.038209,21.5012369 118.256785,20.9350033 C118.475361,20.3687696 118.998268,19.9988776 119.578573,20.0000026 C120.346879,20.0005751 120.975894,20.643714 120.999285,21.4526144 Z" id="形状" fill="#000333" fill-rule="nonzero"></path>
            </g>
        </g>
    </g>
</svg>